<svg xmlns="http://www.w3.org/2000/svg" xmlns:xlink="http://www.w3.org/1999/xlink" viewBox="0 0 188 188"><defs><style>.cls-1{stroke:#fff;stroke-miterlimit:10;stroke-width:6px;fill:url(#linear-gradient);}.cls-2{fill:#fff;}</style><linearGradient id="linear-gradient" x1="94" y1="226.14" x2="94" y2="100.99" gradientUnits="userSpaceOnUse"><stop offset="0" stop-color="#b72223"/><stop offset="1" stop-color="#d43b5d"/></linearGradient></defs><g id="Layer_2" data-name="Layer 2"><g id="Layer_1-2" data-name="Layer 1"><rect class="cls-1" x="3" y="3" width="182" height="182" rx="41.31"/><path class="cls-2" d="M95,43a52,52,0,1,0,52,52A52,52,0,0,0,95,43Zm3.71,80.91a6.15,6.15,0,0,1-4.2,1.61,6.35,6.35,0,0,1-4.29-1.59,5.63,5.63,0,0,1-1.83-4.46,5.73,5.73,0,0,1,1.77-4.27,6,6,0,0,1,4.35-1.74,5.91,5.91,0,0,1,6,6,5.64,5.64,0,0,1-1.81,4.44Zm15.06-37.34A18.45,18.45,0,0,1,110.45,91q-1.9,1.88-6.87,6.31c-.9.83-1.64,1.56-2.2,2.19a9.81,9.81,0,0,0-1.22,1.73,8.26,8.26,0,0,0-.63,1.58q-.21.78-.66,2.76c-.52,2.79-2.11,4.19-4.8,4.19a4.87,4.87,0,0,1-3.52-1.37,5.36,5.36,0,0,1-1.44-4.07,15.23,15.23,0,0,1,1-5.87,15,15,0,0,1,2.78-4.35q1.74-1.87,4.68-4.46c1.72-1.5,3-2.64,3.73-3.4a11.75,11.75,0,0,0,1.94-2.56,6.22,6.22,0,0,0,.78-3.06,7.14,7.14,0,0,0-2.4-5.45A8.79,8.79,0,0,0,95.48,73c-3,0-5.13.75-6.53,2.24a17.84,17.84,0,0,0-3.55,6.59c-.91,3-2.65,4.56-5.2,4.56a5.1,5.1,0,0,1-3.81-1.59,4.88,4.88,0,0,1-1.55-3.44,14.52,14.52,0,0,1,2.46-7.76,18.86,18.86,0,0,1,7.18-6.52,22.55,22.55,0,0,1,11-2.58,23.45,23.45,0,0,1,10.32,2.16,16.75,16.75,0,0,1,6.92,5.86,14.48,14.48,0,0,1,2.44,8.07,12.42,12.42,0,0,1-1.39,6Z"/></g></g></svg>