<svg xmlns="http://www.w3.org/2000/svg" xmlns:xlink="http://www.w3.org/1999/xlink" viewBox="0 0 765 188"><defs><style>.cls-1{stroke:#fff;stroke-miterlimit:10;stroke-width:6px;fill:url(#linear-gradient);}.cls-2{fill:#fff;}</style><linearGradient id="linear-gradient" x1="382.5" y1="-41.83" x2="382.5" y2="156.71" gradientUnits="userSpaceOnUse"><stop offset="0" stop-color="#b72223"/><stop offset="1" stop-color="#d43b5d"/></linearGradient></defs><g id="Layer_2" data-name="Layer 2"><g id="Layer_1-2" data-name="Layer 1"><rect class="cls-1" x="3" y="3" width="759" height="182" rx="91"/><path class="cls-2" d="M303.32,54.58l-13.43,76.77h-19.3l4.9-27.72H254.7l-4.8,27.72H230.6l13.54-76.77h19.2L257.58,87h20.79l5.76-32.42Z"/><path class="cls-2" d="M346.4,53.83q25.69,0,25.69,21a42.53,42.53,0,0,1-.74,7.57l-3.73,21.32q-2.56,14.83-11.09,22t-24,7.14q-15.46,0-21.54-7.14-4.17-4.9-4.16-13.54a46.27,46.27,0,0,1,.85-8.43l3.73-21.32Q316.43,53.84,346.4,53.83Zm-11,62.49a12.55,12.55,0,0,0,8.53-2.78c2.14-1.84,3.63-5.26,4.48-10.23l3.63-20.47a26.55,26.55,0,0,0,.32-3.84q0-8.64-8.75-8.64-11,.21-13.11,12.48l-3.63,20.47a35.55,35.55,0,0,0-.42,5.54Q326.46,116.32,335.41,116.32Z"/><path class="cls-2" d="M409.3,54.58l11.41,36.79,24.53-36.79h20.15l-13.54,76.77h-19.3l7.67-43.29-16.42,25.8h-14l-7.25-25.8-7.68,43.29H375.72l13.54-76.77Z"/><path class="cls-2" d="M520.51,131.35H467l13.54-76.77h53.52l-3,16.63H496.73l-2.45,14.4h28.36l-3,16.63H491.3l-2.14,12.48H523.5Z"/></g></g></svg>