<?xml version="1.0" encoding="utf-8"?>
<!-- Generator: Adobe Illustrator 25.0.0, SVG Export Plug-In . SVG Version: 6.00 Build 0)  -->
<svg version="1.1" id="Layer_1" xmlns="http://www.w3.org/2000/svg" xmlns:xlink="http://www.w3.org/1999/xlink" x="0px" y="0px"
	 viewBox="0 0 188 188" style="enable-background:new 0 0 188 188;" xml:space="preserve">
<style type="text/css">
	.st0{fill:url(#SVGID_1_);stroke:#FFFFFF;stroke-width:6;stroke-miterlimit:10;}
	.st1{fill:#FFFFFF;}
</style>
<g id="Layer_2_1_">
	<g id="Layer_1-2">
		
			<linearGradient id="SVGID_1_" gradientUnits="userSpaceOnUse" x1="94" y1="-36.14" x2="94" y2="89.01" gradientTransform="matrix(1 0 0 -1 0 190)">
			<stop  offset="0" style="stop-color:#B72223"/>
			<stop  offset="1" style="stop-color:#D43B5D"/>
		</linearGradient>
		<path class="st0" d="M44.3,3h99.4C166.5,3,185,21.5,185,44.3v99.4c0,22.8-18.5,41.3-41.3,41.3H44.3C21.5,185,3,166.5,3,143.7V44.3
			C3,21.5,21.5,3,44.3,3z"/>
	</g>
</g>
<path class="st1" d="M145.1,82.4L145.1,82.4l-43.2-43.2c-3.8-3.8-10-3.8-13.8,0c0,0,0,0,0,0L44.9,82.3l0,0c-3.8,3.8-3.8,10,0,13.8
	c1.7,1.7,4,2.7,6.5,2.8h0.3h1.7v31.8c0,6.3,5.1,11.5,11.4,11.5c0,0,0,0,0,0h16.9c1.7,0,3.1-1.4,3.1-3.1l0,0v-24.9
	c0-2.9,2.3-5.2,5.2-5.2h10c2.9,0,5.2,2.3,5.2,5.2v24.9c0,1.7,1.4,3.1,3.1,3.1c0,0,0,0,0,0h16.9c6.3,0,11.4-5.1,11.4-11.4V99h1.6
	c5.4,0,9.8-4.4,9.8-9.8C148,86.7,147,84.2,145.1,82.4L145.1,82.4z"/>
</svg>
