<?xml version="1.0" encoding="utf-8"?>
<!-- Generator: Adobe Illustrator 25.0.0, SVG Export Plug-In . SVG Version: 6.00 Build 0)  -->
<svg version="1.1" id="Layer_1" xmlns="http://www.w3.org/2000/svg" xmlns:xlink="http://www.w3.org/1999/xlink" x="0px" y="0px"
	 viewBox="0 0 225.5 117.7" style="enable-background:new 0 0 225.5 117.7;" xml:space="preserve">
<style type="text/css">
	.st0{clip-path:url(#SVGID_2_);}
	.st1{fill:url(#SVGID_3_);stroke:#FFFFFF;stroke-width:3;stroke-miterlimit:10;}
	.st2{fill:#640000;}
	.st3{fill:#9A0000;}
	.st4{fill:#CE1D00;}
	.st5{fill:#E51A00;}
	.st6{opacity:0.63;}
	.st7{fill:#FFFFFF;}
</style>
<g id="Layer_2_1_">
	<g id="Layer_1-2">
		<g>
			<defs>
				<rect id="SVGID_1_" x="-5.9" y="-21.9" width="232.2" height="166.8"/>
			</defs>
			<clipPath id="SVGID_2_">
				<use xlink:href="#SVGID_1_"  style="overflow:visible;"/>
			</clipPath>
			<g class="st0">
				
					<linearGradient id="SVGID_3_" gradientUnits="userSpaceOnUse" x1="340.5801" y1="64.1557" x2="94.3901" y2="58.9057" gradientTransform="matrix(1 0 0 -1 0 120)">
					<stop  offset="0" style="stop-color:#0E3472"/>
					<stop  offset="1" style="stop-color:#0265BF"/>
				</linearGradient>
				<path class="st1" d="M58.8,1.5h281.1c31.7,0,57.4,25.7,57.4,57.3v0c0,31.7-25.7,57.3-57.4,57.3H58.8
					c-31.7,0-57.3-25.7-57.3-57.3v0C1.5,27.2,27.2,1.5,58.8,1.5z"/>
			</g>
		</g>
		<path d="M57.2,97.4c-2.7,0-5.3-0.3-7.9-0.8c-20.7-4.3-33.9-24.6-29.6-45.2S44.3,17.5,65,21.8S98.9,46.4,94.5,67c0,0,0,0,0,0l0,0
			C90.8,84.7,75.3,97.4,57.2,97.4z"/>
		<path d="M57.1,23.9c-19.5,0-35.4,15.8-35.4,35.4c0,19.5,15.8,35.4,35.4,35.4s35.4-15.8,35.4-35.4c0-16.7-11.7-31.2-28.1-34.6
			C62,24.1,59.5,23.9,57.1,23.9z"/>
		<path class="st2" d="M21.1,51.7C17,71.6,29.7,91.1,49.6,95.2S89,86.6,93.1,66.7c4.2-19.9-8.6-39.4-28.5-43.5
			C44.8,19.1,25.3,31.8,21.1,51.7C21.1,51.7,21.1,51.7,21.1,51.7z"/>
		<path class="st3" d="M24.4,51.5c-3.8,18.2,7.8,35.9,26,39.7s35.9-7.8,39.7-26c3.8-18.2-7.8-35.9-26-39.7
			C46,21.7,28.2,33.3,24.4,51.5z"/>
		<path class="st4" d="M29,49.4c-3.3,16,6.9,31.6,22.9,35c16,3.3,31.6-6.9,35-22.9c3.3-16-6.9-31.6-22.9-34.9
			C48,23.1,32.3,33.4,29,49.4C29,49.4,29,49.4,29,49.4z"/>
		<path class="st5" d="M74.4,32.6c0,0-10.3-8.2-25.7-3S31,48.5,30.7,55.9c0,0,2.1-12.8,13.4-19.5c8.1-4.8,18-1.2,21,1.1
			C66.4,37.8,75.3,33.7,74.4,32.6z"/>
		<g class="st6">
			<polygon class="st7" points="24.1,71.8 26.1,69.8 25.7,69.4 23.8,71.6 			"/>
			<polygon class="st7" points="28.1,67.9 30.2,65.9 29.7,65.3 27.7,67.4 			"/>
			<polygon class="st7" points="32.4,64.1 34.5,62.2 33.9,61.5 31.8,63.4 			"/>
			<path class="st7" d="M36.7,60.5l2.2-1.7l-0.8-1c-0.8,0.6-1.5,1.2-2.2,1.8L36.7,60.5z"/>
			<polygon class="st7" points="41.2,57 43.5,55.4 42.8,54.3 40.5,56 			"/>
			<polygon class="st7" points="45.9,53.8 48.2,52.2 47.5,51.1 45.1,52.7 			"/>
			<path class="st7" d="M50.6,50.7l2.5-1.4l-0.8-1.2c-0.8,0.5-1.7,1-2.5,1.5L50.6,50.7z"/>
			<polygon class="st7" points="55.5,47.9 58,46.6 57.4,45.4 54.9,46.7 			"/>
			<polygon class="st7" points="60.5,45.3 63.1,44.1 62.6,42.9 60,44.1 			"/>
			<path class="st7" d="M65.7,42.9l2.6-1.1l-0.4-1.1c-0.9,0.3-1.8,0.7-2.7,1L65.7,42.9z"/>
			<polygon class="st7" points="70.9,40.8 73.6,39.9 73.3,39 70.6,39.8 			"/>
			<path class="st7" d="M76.3,39l2.7-0.8l-0.2-0.7c-0.9,0.2-1.8,0.5-2.8,0.7L76.3,39z"/>
			<path class="st7" d="M81.7,37.4c0.9-0.2,1.8-0.5,2.8-0.7l-0.1-0.3c-0.9,0.2-1.9,0.3-2.8,0.5L81.7,37.4z"/>
			<polygon class="st7" points="25.4,75.1 27.5,73.1 27.1,72.7 25.2,74.9 			"/>
			<polygon class="st7" points="29.5,71.1 31.6,69.1 31.1,68.6 29,70.6 			"/>
			<polygon class="st7" points="33.8,67.2 35.9,65.3 35.3,64.6 33.1,66.5 			"/>
			<path class="st7" d="M38.1,63.5l2.2-1.8l-0.8-1c-0.8,0.6-1.5,1.2-2.2,1.9L38.1,63.5z"/>
			<polygon class="st7" points="42.7,60 45,58.3 44.2,57.3 41.9,59 			"/>
			<polygon class="st7" points="47.3,56.7 49.7,55.1 49,53.9 46.6,55.6 			"/>
			<path class="st7" d="M52.1,53.6l2.5-1.5l-0.7-1.2c-0.8,0.5-1.7,1-2.5,1.5L52.1,53.6z"/>
			<polygon class="st7" points="57.1,50.6 59.6,49.3 59,48.1 56.4,49.4 			"/>
			<polygon class="st7" points="62.1,48 64.7,46.7 64.2,45.6 61.6,46.8 			"/>
			<path class="st7" d="M67.3,45.5l2.6-1.1l-0.4-1.1c-0.9,0.3-1.8,0.7-2.7,1.1L67.3,45.5z"/>
			<path class="st7" d="M72.6,43.4c0.9-0.3,1.8-0.7,2.7-1L75,41.5c-0.9,0.3-1.8,0.6-2.8,0.9L72.6,43.4z"/>
			<path class="st7" d="M78.1,41.5l2.8-0.8L80.7,40c-1,0.2-1.9,0.5-2.8,0.7L78.1,41.5z"/>
			<path class="st7" d="M83.6,39.9c0.9-0.2,1.9-0.5,2.8-0.7l-0.1-0.3c-1,0.2-1.9,0.3-2.8,0.5L83.6,39.9z"/>
			<polygon class="st7" points="22.9,68.2 24.9,66.2 24.5,65.9 22.7,68 			"/>
			<path class="st7" d="M26.9,64.3l2-1.9l-0.5-0.6c-0.7,0.7-1.3,1.3-2,2L26.9,64.3z"/>
			<polygon class="st7" points="31.1,60.6 33.2,58.8 32.5,58 30.5,59.9 			"/>
			<path class="st7" d="M35.4,57.1l2.2-1.7l-0.8-1c-0.7,0.6-1.5,1.2-2.2,1.8L35.4,57.1z"/>
			<polygon class="st7" points="39.8,53.7 42.1,52 41.3,51 39,52.7 			"/>
			<polygon class="st7" points="44.4,50.5 46.7,49 46,47.8 43.6,49.4 			"/>
			<path class="st7" d="M49.1,47.5l2.4-1.4l-0.7-1.2c-0.8,0.4-1.6,0.9-2.4,1.4L49.1,47.5z"/>
			<polygon class="st7" points="53.9,44.8 56.4,43.5 55.8,42.3 53.3,43.5 			"/>
			<polygon class="st7" points="58.8,42.2 61.4,41 60.9,39.9 58.3,41 			"/>
			<path class="st7" d="M63.9,40l2.6-1l-0.4-1.1c-0.9,0.3-1.8,0.7-2.6,1L63.9,40z"/>
			<polygon class="st7" points="69.1,37.9 71.8,37 71.5,36.1 68.8,36.9 			"/>
			<path class="st7" d="M74.4,36.2l2.7-0.8l-0.2-0.7c-0.9,0.2-1.8,0.4-2.7,0.7L74.4,36.2z"/>
			<path class="st7" d="M79.8,34.7c0.9-0.2,1.8-0.5,2.7-0.7l-0.1-0.3c-0.9,0.2-1.8,0.3-2.8,0.5L79.8,34.7z"/>
			<polygon class="st7" points="26.9,77.8 29.2,76.1 28.9,75.7 26.7,77.5 			"/>
			<polygon class="st7" points="31.5,74.4 33.8,72.7 33.3,72.1 31.1,73.8 			"/>
			<polygon class="st7" points="36.1,71.1 38.5,69.4 37.9,68.6 35.6,70.3 			"/>
			<path class="st7" d="M40.9,67.8l2.4-1.6l-0.7-1c-0.8,0.5-1.6,1.1-2.3,1.7L40.9,67.8z"/>
			<polygon class="st7" points="45.6,64.7 48,63.1 47.3,62 44.9,63.6 			"/>
			<polygon class="st7" points="50.4,61.6 52.8,60.1 52.1,59 49.7,60.5 			"/>
			<path class="st7" d="M55.3,58.7l2.5-1.4L57.1,56c-0.8,0.5-1.7,1-2.5,1.4L55.3,58.7z"/>
			<polygon class="st7" points="60.2,55.8 62.7,54.4 62.1,53.2 59.6,54.6 			"/>
			<polygon class="st7" points="65.2,53 67.7,51.7 67.2,50.6 64.6,51.9 			"/>
			<polygon class="st7" points="70.3,50.4 72.8,49.1 72.3,48.1 69.7,49.3 			"/>
			<polygon class="st7" points="75.4,47.9 78,46.7 77.6,45.8 75,46.9 			"/>
			<polygon class="st7" points="80.6,45.5 83.2,44.3 82.9,43.7 80.3,44.7 			"/>
			<polygon class="st7" points="85.8,43.2 88.5,42.1 88.4,41.8 85.7,42.7 			"/>
		</g>
		<path class="st7" d="M119.1,82.7h-7.2v-48h7.2V82.7z"/>
		<path class="st7" d="M133.7,34.7l9.6,32.2V34.7h7.2v48h-7.8l-10-30.7v30.7h-7.2v-48L133.7,34.7z"/>
		<path class="st7" d="M164.2,82.7H157v-48h20.6v7.2h-13.4v13.1h9.8v7.2h-9.8V82.7z"/>
		<path class="st7" d="M194,34.1c6.3,0,11.5,5.1,11.5,11.4c0,0,0,0,0,0.1v26.2c0,6.3-5.1,11.5-11.5,11.5s-11.5-5.1-11.5-11.5
			c0,0,0,0,0,0V45.6C182.5,39.3,187.6,34.1,194,34.1z M197.9,45.4c0-2.3-1.8-4.1-4.1-4.1c0,0,0,0-0.1,0c-1.1,0-2.2,0.4-2.9,1.2
			c-0.8,0.8-1.2,1.8-1.2,2.9v26.3c0,1.1,0.4,2.2,1.2,2.9c0.8,0.8,1.8,1.2,2.9,1.2c2.3,0,4.1-1.8,4.1-4.1c0,0,0,0,0,0V45.4z"/>
	</g>
</g>
</svg>
