<?xml version="1.0" encoding="utf-8"?>
<!-- Generator: Adobe Illustrator 25.0.0, SVG Export Plug-In . SVG Version: 6.00 Build 0)  -->
<svg version="1.1" id="Layer_1" xmlns="http://www.w3.org/2000/svg" xmlns:xlink="http://www.w3.org/1999/xlink" x="0px" y="0px"
	 viewBox="0 0 188 188" style="enable-background:new 0 0 188 188;" xml:space="preserve">
<style type="text/css">
	.st0{fill:url(#SVGID_1_);stroke:#FFFFFF;stroke-width:6;stroke-miterlimit:10;}
	.st1{fill:#FFFFFF;}
</style>
<g id="Layer_2_1_">
	<g id="Layer_1-2">
		
			<linearGradient id="SVGID_1_" gradientUnits="userSpaceOnUse" x1="94" y1="-36.14" x2="94" y2="89.01" gradientTransform="matrix(1 0 0 -1 0 190)">
			<stop  offset="0" style="stop-color:#B72223"/>
			<stop  offset="1" style="stop-color:#D43B5D"/>
		</linearGradient>
		<path class="st0" d="M44.3,3h99.4C166.5,3,185,21.5,185,44.3v99.4c0,22.8-18.5,41.3-41.3,41.3H44.3C21.5,185,3,166.5,3,143.7V44.3
			C3,21.5,21.5,3,44.3,3z"/>
	</g>
</g>
<g>
	<path class="st1" d="M108,76c-0.7,0-1.3-0.2-1.9-0.6l-8.4-5.7l-8.4,5.7c-1.5,1-3.6,0.6-4.6-0.9c-0.5-0.8-0.7-1.8-0.5-2.7l2.7-10.4
		l-7.9-6.8c-1.4-1.2-1.6-3.3-0.4-4.7c0.6-0.7,1.5-1.1,2.4-1.2l10-0.6l3.7-10c0.6-1.7,2.5-2.6,4.3-2c0.9,0.3,1.6,1.1,2,2l3.7,10
		l10,0.6c1.8,0.1,3.3,1.6,3.2,3.5c0,0.9-0.5,1.8-1.2,2.4l-7.9,6.8l2.7,10.4c0.3,1.3-0.2,2.8-1.3,3.5C109.3,75.8,108.6,76,108,76z"/>
	<path class="st1" d="M147.6,120.3h-21v18.8c0,1.1-0.2,2.3-0.6,3.3h21.6c1.8,0,3.3-1.5,3.3-3.3v-15.5
		C150.9,121.8,149.4,120.3,147.6,120.3L147.6,120.3z"/>
	<path class="st1" d="M68.9,111.5h-21c-1.8,0-3.3,1.5-3.3,3.3v24.4c0,1.8,1.5,3.3,3.3,3.3h21.6c-0.4-1.1-0.6-2.2-0.6-3.3V111.5z"/>
	<path class="st1" d="M116.5,84.9H78.8c-1.8,0-3.3,1.5-3.3,3.3v51c0,1.8,1.5,3.3,3.3,3.3l0,0h37.7c1.8,0,3.3-1.5,3.3-3.3v-51
		C119.8,86.4,118.4,84.9,116.5,84.9z M101,121.4c0,1.8-1.5,3.3-3.3,3.3c-1.8,0-3.3-1.5-3.3-3.3c0,0,0,0,0,0v-13
		c-1.4-1.2-1.5-3.3-0.3-4.7c0.6-0.7,1.5-1.1,2.5-1.1h1.1c1.8,0,3.3,1.5,3.3,3.3V121.4z"/>
</g>
</svg>
