<svg xmlns="http://www.w3.org/2000/svg" xmlns:xlink="http://www.w3.org/1999/xlink" viewBox="0 0 765 188"><defs><style>.cls-1{stroke:#fff;stroke-miterlimit:10;stroke-width:6px;fill:url(#linear-gradient);}.cls-2{fill:#fff;}</style><linearGradient id="linear-gradient" x1="382.5" y1="-41.83" x2="382.5" y2="156.71" gradientUnits="userSpaceOnUse"><stop offset="0" stop-color="#b72223"/><stop offset="1" stop-color="#d43b5d"/></linearGradient></defs><g id="Layer_2" data-name="Layer 2"><g id="Layer_1-2" data-name="Layer 1"><rect class="cls-1" x="3" y="3" width="759" height="182" rx="91"/><path class="cls-2" d="M289.57,108H276.88l-4.16,23.35H253.53l13.54-76.77h32.52q12,0,17.16,5.55A15.88,15.88,0,0,1,320.49,71a27.82,27.82,0,0,1-.43,4.69l-2.13,12a22.58,22.58,0,0,1-9.39,14.55Q300.77,108,289.57,108Zm3.3-36.79h-9.59l-3.52,20.16h9.49q8.73,0,10.13-7.79l.74-4.37a12.44,12.44,0,0,0,.21-2.56,5.76,5.76,0,0,0-1.59-3.52Q297.14,71.21,292.87,71.21Z"/><path class="cls-2" d="M370.17,131.35H321.55l13.54-76.77h19.2l-10.56,60.14h29.43Z"/><path class="cls-2" d="M416.66,131.35l.64-16.74H399.49l-5.22,16.74H373.9l27.41-76.77h35.18l.43,76.77Zm-4.37-58.11-8.42,27.08h14L419,73.24Z"/><path class="cls-2" d="M478.29,81.56l18-27H515.5l-32.84,47.24-5.22,29.53h-19.3l5.22-29.53L447.15,54.58h20.37l8.32,27Z"/></g></g></svg>