<?xml version="1.0" encoding="utf-8"?>
<!-- Generator: Adobe Illustrator 25.0.0, SVG Export Plug-In . SVG Version: 6.00 Build 0)  -->
<svg version="1.1" id="Layer_1" xmlns="http://www.w3.org/2000/svg" xmlns:xlink="http://www.w3.org/1999/xlink" x="0px" y="0px"
	 viewBox="0 0 188 188" style="enable-background:new 0 0 188 188;" xml:space="preserve">
<style type="text/css">
	.st0{fill:url(#SVGID_1_);stroke:#FFFFFF;stroke-width:6;stroke-miterlimit:10;}
	.st1{fill:#FFFFFF;}
</style>
<g id="Layer_2_1_">
	<g id="Layer_1-2">
		
			<linearGradient id="SVGID_1_" gradientUnits="userSpaceOnUse" x1="94" y1="-36.14" x2="94" y2="89.01" gradientTransform="matrix(1 0 0 -1 0 190)">
			<stop  offset="0" style="stop-color:#B72223"/>
			<stop  offset="1" style="stop-color:#D43B5D"/>
		</linearGradient>
		<path class="st0" d="M44.3,3h99.4C166.5,3,185,21.5,185,44.3v99.4c0,22.8-18.5,41.3-41.3,41.3H44.3C21.5,185,3,166.5,3,143.7V44.3
			C3,21.5,21.5,3,44.3,3z"/>
	</g>
</g>
<path class="st1" d="M153.9,78.6l-29.4-29.4c-1.4-1.4-3.8-1.4-5.2,0c-0.7,0.7-1.1,1.6-1.1,2.6v14.7h-12.9c-27.3,0-44,7.7-50.2,23.1
	c-2,5.1-3,11.5-3,19.1c0,6.3,2.4,15,7.3,25.9c0.1,0.3,0.3,0.7,0.6,1.4l0.8,1.7c0.2,0.4,0.5,0.9,0.8,1.3c0.3,0.6,0.9,1,1.6,1
	c0.5,0,1-0.2,1.4-0.6c0.3-0.4,0.5-0.9,0.5-1.4c0-0.5-0.1-1-0.2-1.5c-0.1-0.4-0.1-0.9-0.1-1.4c-0.2-2.6-0.3-4.9-0.3-7
	c0-3.5,0.3-7,1-10.4c0.6-2.8,1.5-5.5,2.8-8c1.2-2.2,2.7-4.2,4.6-5.8c1.8-1.6,3.9-2.9,6.1-4c2.4-1.1,5-1.9,7.6-2.4
	c2.9-0.6,5.9-1,8.8-1.2c3-0.2,6.3-0.3,10.1-0.3h12.9v14.7c0,2,1.6,3.7,3.6,3.7c1,0,1.9-0.4,2.6-1.1l29.4-29.4
	C155.3,82.4,155.4,80.1,153.9,78.6C153.9,78.6,153.9,78.6,153.9,78.6L153.9,78.6z"/>
</svg>
