<svg xmlns="http://www.w3.org/2000/svg" xmlns:xlink="http://www.w3.org/1999/xlink" viewBox="0 0 765 188"><defs><style>.cls-1{stroke:#fff;stroke-miterlimit:10;stroke-width:6px;fill:url(#linear-gradient);}.cls-2{fill:#fff;}</style><linearGradient id="linear-gradient" x1="382.5" y1="-41.83" x2="382.5" y2="156.71" gradientUnits="userSpaceOnUse"><stop offset="0" stop-color="#b72223"/><stop offset="1" stop-color="#d43b5d"/></linearGradient></defs><g id="Layer_2" data-name="Layer 2"><g id="Layer_1-2" data-name="Layer 1"><rect class="cls-1" x="3" y="3" width="759" height="182" rx="91"/><path class="cls-2" d="M199.74,109.49q0,7.37,10.61,7.36T221,110.24q0-3.52-3.63-5.76a35.73,35.73,0,0,0-8.8-3.73q-5.17-1.5-10.34-3.47a21.53,21.53,0,0,1-8.8-6.18,15.57,15.57,0,0,1-3.62-10.5q0-26.76,34.44-26.77,12.58,0,19,4.75a15.42,15.42,0,0,1,6.45,13.17,21.42,21.42,0,0,1-.8,5.92,13.27,13.27,0,0,1-1.65,4l-.85,1.28H223.51a8.54,8.54,0,0,0,2.35-6.18q0-6.93-9.06-6.93-11.42,0-11.41,7.25,0,3.63,3.62,5.76a31.94,31.94,0,0,0,8.8,3.36,107.74,107.74,0,0,1,10.4,3,20.19,20.19,0,0,1,8.84,6q3.63,4.21,3.63,10.93,0,13.53-8.1,20.1t-25,6.55q-16.86,0-23-6Q180,122.4,180,114.5a36.21,36.21,0,0,1,.64-6.5l.32-1.71h19.19l-.21,1.28A10,10,0,0,0,199.74,109.49Z"/><path class="cls-2" d="M301.4,125.75q-8.47,7.09-23.94,7.09T256,125.7q-4.26-4.9-4.26-13.54a46.27,46.27,0,0,1,.85-8.43l8.64-49.15h19.19l-8.64,48.73a35.55,35.55,0,0,0-.42,5.54q0,7.47,8.95,7.47a12.55,12.55,0,0,0,8.53-2.78c2.14-1.84,3.63-5.26,4.48-10.23L302,54.58h19.19l-8.64,49.15Q309.89,118.67,301.4,125.75Z"/><path class="cls-2" d="M366.6,54.58q12.16,0,17.28,5.33a14.29,14.29,0,0,1,3.83,10.24,25.52,25.52,0,0,1-.42,4.48l-1,5.11a18,18,0,0,1-4.53,9.49q-3.36,3.42-5.92,3.42l-.11.85q3,0,6.08,3.3a11,11,0,0,1,3.09,7.79,18.93,18.93,0,0,1-.42,3.84l-.64,3.3a23.31,23.31,0,0,1-8.16,14.4q-6.45,5.22-18,5.22H322.14l13.54-76.77ZM357,100H346.88l-2.56,14.72h10.56a12.15,12.15,0,0,0,7.78-2.3,6.9,6.9,0,0,0,2.88-5.59Q365.54,100,357,100Zm2.88-28.79h-8L349.12,87.1H357q10.23,0,10.23-9a6.9,6.9,0,0,0-1.86-5A7.34,7.34,0,0,0,359.89,71.21Z"/><path class="cls-2" d="M425.78,54.58l11.41,36.79,24.52-36.79h20.15l-13.54,76.77H449l7.68-43.29-16.42,25.8h-14l-7.25-25.8-7.68,43.29H392.19l13.54-76.77Z"/><path class="cls-2" d="M516.2,54.58l-13.44,76.77h-19.3L497,54.58Z"/><path class="cls-2" d="M593.82,71.21H567.59L557,131.35h-19.3l10.56-60.14H522l3-16.63H596.8Z"/></g></g></svg>